# xmcd
#
# Track frame offsets:
#	300
#	23536
#	42180
#	62658
#	81748
#	100684
#	116342
#	130509
#
# Disc length: 1955 seconds
#
# Revision: 0
# Processed by: cddbd v1.5.2PL0 Copyright (c) Steve Scherf et al.
# Submitted via: audiograbber 1.83.01
#
DISCID=5c079f08
DTITLE=Rising Hate - Memories belong to the dead
DYEAR=2007
DGENRE=Death Metal
TTITLE0=Demonstration and demise
TTITLE1=Soul Ablaze
TTITLE2=Memories belong to the dead
TTITLE3=Owner of eternal silence
TTITLE4=Deep Wounds
TTITLE5=The beginning
TTITLE6=The Verity
TTITLE7=The end
EXTD=
EXTT0=
EXTT1=
EXTT2=
EXTT3=
EXTT4=
EXTT5=
EXTT6=
EXTT7=
PLAYORDER=
